<?xml version="1.0" standalone="no"?><!DOCTYPE svg PUBLIC "-//W3C//DTD SVG 1.1//EN" "http://www.w3.org/Graphics/SVG/1.1/DTD/svg11.dtd">
<svg class="icon" height="512" viewBox="0 0 1024 1024" version="1.1" 
  xmlns="http://www.w3.org/2000/svg">
  <path d="M512 64C264.6 64 64 264.6 64 512s200.6 448 448 448 448-200.6 448-448S759.4 64 512 64z m229.8 298.2l-278.2 357c-2.2 2.2-5.8 7-10.2 7-4.6 0-7.6-3.2-10.2-5.8-2.6-2.6-157.8-151.8-157.8-151.8l-3-3c-1.2-1.8-2.2-4-2.2-6.4 0-2.4 1-4.6 2.2-6.4 0.8-0.8 1.4-1.4 2.2-2.4 15.4-16.2 46.6-49 48.6-51 2.6-2.6 4.8-6 9.6-6 5 0 8.2 4.2 10.6 6.6 2.4 2.4 90 86.6 90 86.6l222.6-286c2-1.6 4.4-2.8 7-2.8 2.6 0 5 1 7 2.6l61.2 48.2c1.6 2 2.6 4.4 2.6 7 0.2 2.6-0.8 4.8-2 6.6z" fill="#147211" />
</svg>