<?xml version="1.0" encoding="UTF-8" standalone="no"?>
<!-- Created with Inkscape (http://www.inkscape.org/) -->
<svg
   xmlns:svg="http://www.w3.org/2000/svg"
   xmlns="http://www.w3.org/2000/svg"
   version="1.0"
   width="415"
   height="300.00003"
   id="svg1874">
  <defs
     id="defs1876" />
  <g
     transform="translate(0,-752.3622)"
     id="layer1">
    <rect
       width="415"
       height="150"
       x="0"
       y="902.36218"
       style="opacity:1;color:black;fill:#c00;fill-opacity:1;fill-rule:nonzero;stroke:none;stroke-width:5.07936525;stroke-linecap:butt;stroke-linejoin:miter;marker:none;marker-start:none;marker-mid:none;marker-end:none;stroke-miterlimit:4;stroke-dasharray:none;stroke-dashoffset:0;stroke-opacity:1;visibility:visible;display:inline;overflow:visible"
       id="rect2772" />
    <rect
       width="415"
       height="150"
       x="0"
       y="752.36218"
       style="opacity:1;color:black;fill:navy;fill-opacity:1;fill-rule:nonzero;stroke:none;stroke-width:5.07936525;stroke-linecap:butt;stroke-linejoin:miter;marker:none;marker-start:none;marker-mid:none;marker-end:none;stroke-miterlimit:4;stroke-dasharray:none;stroke-dashoffset:0;stroke-opacity:1;visibility:visible;display:inline;overflow:visible"
       id="rect1884" />
    <path
       d="M 0,752.36218 L 0,1052.3622 L 58,1052.3622 L 208,902.36218 L 58,752.36218 L 0,752.36218 z "
       style="opacity:1;color:black;fill:white;fill-opacity:1;fill-rule:nonzero;stroke:none;stroke-width:5.07936525;stroke-linecap:butt;stroke-linejoin:miter;marker:none;marker-start:none;marker-mid:none;marker-end:none;stroke-miterlimit:4;stroke-dasharray:none;stroke-dashoffset:0;stroke-opacity:1;visibility:visible;display:inline;overflow:visible"
       id="rect1960" />
    <path
       d="M 74.412523,911.68511 L 47.797949,891.00617 L 21.250895,911.77172 L 32.693383,880.06961 L 4.7406791,861.23877 L 38.4271,862.32474 L 47.698433,829.92108 L 57.075298,862.29435 L 90.758001,861.09864 L 62.866801,880.02046 L 74.412523,911.68511 z "
       transform="matrix(0.870033,0,0,0.870033,26.87545,145.0907)"
       style="opacity:1;color:black;fill:#fd0;fill-opacity:1;fill-rule:nonzero;stroke:none;stroke-width:5.07936525;stroke-linecap:butt;stroke-linejoin:miter;marker:none;marker-start:none;marker-mid:none;marker-end:none;stroke-miterlimit:4;stroke-dasharray:none;stroke-dashoffset:0;stroke-opacity:1;visibility:visible;display:inline;overflow:visible"
       id="path8227" />
    <path
       d="M 309.69917,878.16096 C 307.64071,876.14411 306.5845,874.21079 306.76795,872.79562 C 306.80638,872.49902 306.78769,872.25642 306.7264,872.25642 C 306.66511,872.25642 306.28176,872.43458 305.8745,872.65233 C 304.85903,873.19534 304.31439,873.30289 303.63646,873.09447 C 302.54684,872.75946 301.58698,871.30379 300.99052,869.08188 L 300.73954,868.14687 L 302.21037,868.23197 C 305.46967,868.42044 307.3401,867.24171 307.73615,864.7496 L 307.83502,864.12748 L 306.70246,864.12635 C 305.45133,864.12516 304.96095,863.88389 304.46545,863.02568 C 304.11277,862.41488 304.11771,861.8942 304.48257,861.22006 C 304.87818,860.48915 305.56915,860.14592 306.6452,860.14592 C 307.3109,860.14592 307.53128,860.08779 307.53128,859.91201 C 307.53128,859.43873 306.36245,858.00979 305.34104,857.23444 C 303.83605,856.092 302.15407,855.4811 300.48473,855.47079 C 298.93109,855.46111 298.21325,855.73775 297.87944,856.47493 C 297.57178,857.15426 297.59159,859.00307 297.91807,860.08163 L 298.1748,860.92971 L 297.51378,861.11644 C 295.092,861.80034 293.24917,861.24689 291.4766,859.30331 C 289.74694,857.40677 288.84371,854.62375 288.97724,851.60225 C 289.15515,847.57682 291.10157,844.8897 294.32911,844.21381 C 296.57894,843.7427 300.01829,844.73188 302.28393,846.50178 C 304.0559,847.88597 305.83065,850.44121 307.18933,853.56436 C 307.83103,855.03942 308.25771,855.57181 308.25771,854.89739 C 308.25771,854.74801 307.86048,853.23631 307.37495,851.53802 C 306.37251,848.03158 305.49252,844.25031 305.112,841.81435 C 304.06333,834.12173 305.52301,828.17006 310.10328,822.40444 L 311.11471,821.24317 C 316.32683,826.46602 318.48696,834.33816 317.2964,842.06321 C 316.85283,844.68022 316.25566,847.22787 315.2292,850.88229 C 314.75099,852.58492 314.35971,854.09662 314.35971,854.24172 C 314.35971,854.80155 314.79493,854.46391 315.24921,853.55158 C 316.29482,851.4516 317.6851,849.36588 319.14729,847.70367 C 321.58255,844.93539 323.0115,844.15897 325.69199,844.1476 C 328.22383,844.13686 330.01773,844.86934 331.49095,846.51539 C 332.86654,848.05227 333.53253,849.90052 333.5357,852.18955 C 333.54035,855.56527 331.92104,858.81591 329.50604,860.27881 C 328.36418,860.97043 326.76503,861.3658 325.68594,861.22315 L 324.88081,861.1168 L 324.88081,859.41571 C 324.88081,857.86117 324.84379,857.63059 324.45102,856.73981 C 323.88153,855.44819 323.28141,855.07576 321.82665,855.11129 C 320.57161,855.1419 319.52937,855.58767 317.75962,856.85093 C 316.39352,857.826 314.65028,859.54205 314.65028,859.9118 C 314.65028,860.09272 314.89961,860.14592 315.74713,860.14592 C 317.36662,860.14592 318.28242,860.84891 318.28242,862.09202 C 318.28242,863.46949 317.4652,864.12748 315.75429,864.12748 C 314.6876,864.12748 314.65028,864.14089 314.65028,864.52334 C 314.65028,865.08963 315.72018,866.84144 316.4302,867.43764 C 317.47976,868.319 318.46844,868.65246 320.06217,868.66257 C 320.84125,868.66755 321.47871,868.71052 321.47871,868.75805 C 321.47871,869.02038 320.9185,870.47494 320.50284,871.29179 C 319.62635,873.01444 318.38284,873.81492 317.19852,873.419 C 316.87573,873.31102 316.32553,873.04266 315.97587,872.82258 C 315.6262,872.60243 315.29128,872.4223 315.23162,872.4223 C 315.17193,872.4223 315.09185,872.7938 315.05364,873.24779 C 314.93347,874.67579 314.18135,876.13997 312.6867,877.85545 C 311.95134,878.6994 311.25874,879.3882 311.14759,879.38603 C 311.03644,879.38387 310.38465,878.83256 309.69917,878.16096 z "
       style="fill:white;fill-opacity:1"
       id="path4650" />
    <path
       d="M 359.72869,831.13716 C 357.67024,829.1203 356.61404,827.18698 356.79749,825.77181 C 356.83592,825.4752 356.81724,825.23261 356.75594,825.23261 C 356.69465,825.23261 356.31131,825.41077 355.90405,825.62852 C 354.88859,826.17153 354.34396,826.27908 353.66603,826.07066 C 352.57642,825.73564 351.61657,824.27997 351.02012,822.05806 L 350.76914,821.12305 L 352.23996,821.20815 C 355.49922,821.39662 357.36963,820.21789 357.76568,817.72576 L 357.86456,817.10365 L 356.73201,817.10251 C 355.48089,817.10132 354.99051,816.86006 354.49501,816.00184 C 354.14233,815.39104 354.14727,814.87036 354.51214,814.19622 C 354.90774,813.4653 355.5987,813.12207 356.67475,813.12207 C 357.34044,813.12207 357.56082,813.06394 357.56082,812.88817 C 357.56082,812.41488 356.39199,810.98594 355.3706,810.21058 C 353.86562,809.06815 352.18366,808.45725 350.51433,808.44694 C 348.96071,808.43725 348.24288,808.7139 347.90907,809.45108 C 347.60142,810.1304 347.62123,811.97922 347.9477,813.05779 L 348.20442,813.90587 L 347.54341,814.09259 C 345.12166,814.7765 343.27885,814.22305 341.50629,812.27947 C 339.77664,810.38291 338.87342,807.59989 339.00695,804.57839 C 339.18486,800.55295 341.13127,797.86582 344.35878,797.18993 C 346.60858,796.71881 350.04789,797.708 352.31351,799.4779 C 354.08547,800.8621 355.8602,803.41734 357.21887,806.5405 C 357.86056,808.01556 358.28724,808.54795 358.28724,807.87353 C 358.28724,807.72415 357.89001,806.21244 357.40448,804.51416 C 356.40206,801.00771 355.52208,797.22643 355.14155,794.79047 C 354.0929,787.09782 355.55256,781.14613 360.13279,775.38051 L 361.14421,774.21923 C 366.35629,779.44209 368.51639,787.31426 367.32584,795.03932 C 366.88227,797.65633 366.28511,800.20399 365.25866,803.85842 C 364.78045,805.56106 364.38918,807.07276 364.38918,807.21786 C 364.38918,807.7777 364.82439,807.44006 365.27867,806.52772 C 366.32427,804.42774 367.71454,802.34201 369.17671,800.6798 C 371.61195,797.91151 373.04088,797.13509 375.72135,797.12372 C 378.25316,797.11298 380.04705,797.84546 381.52025,799.49151 C 382.89583,801.0284 383.56182,802.87665 383.56499,805.16569 C 383.56963,808.54141 381.95034,811.79206 379.53536,813.25497 C 378.39351,813.94658 376.79438,814.34196 375.7153,814.19931 L 374.91018,814.09296 L 374.91018,812.39187 C 374.91018,810.83732 374.87316,810.60674 374.48039,809.71596 C 373.91091,808.42433 373.3108,808.0519 371.85605,808.08743 C 370.60102,808.11805 369.55879,808.56382 367.78906,809.82708 C 366.42297,810.80215 364.67975,812.51821 364.67975,812.88796 C 364.67975,813.06888 364.92907,813.12207 365.77659,813.12207 C 367.39606,813.12207 368.31185,813.82506 368.31185,815.06818 C 368.31185,816.44565 367.49464,817.10365 365.78375,817.10365 C 364.71706,817.10365 364.67975,817.11705 364.67975,817.4995 C 364.67975,818.0658 365.74964,819.81761 366.45965,820.41381 C 367.5092,821.29518 368.49787,821.62863 370.09158,821.63875 C 370.87066,821.64372 371.50811,821.68669 371.50811,821.73423 C 371.50811,821.99655 370.9479,823.45112 370.53225,824.26797 C 369.65576,825.99062 368.41227,826.79111 367.22796,826.39518 C 366.90518,826.28721 366.35499,826.01884 366.00533,825.79876 C 365.65565,825.57861 365.32074,825.39848 365.26108,825.39848 C 365.20139,825.39848 365.12131,825.76999 365.0831,826.22397 C 364.96293,827.65198 364.21082,829.11616 362.71618,830.83165 C 361.98084,831.6756 361.28824,832.3644 361.17709,832.36223 C 361.06594,832.36007 360.41415,831.80876 359.72869,831.13716 z "
       style="fill:white;fill-opacity:1"
       id="path5537" />
    <path
       d="M 259.69869,831.13716 C 257.64024,829.1203 256.58404,827.18698 256.76749,825.77181 C 256.80592,825.4752 256.78724,825.23261 256.72594,825.23261 C 256.66465,825.23261 256.28131,825.41077 255.87405,825.62852 C 254.85859,826.17153 254.31396,826.27908 253.63603,826.07066 C 252.54642,825.73564 251.58657,824.27997 250.99012,822.05806 L 250.73914,821.12305 L 252.20996,821.20815 C 255.46922,821.39662 257.33963,820.21789 257.73568,817.72576 L 257.83456,817.10365 L 256.70201,817.10251 C 255.45089,817.10132 254.96051,816.86006 254.46501,816.00184 C 254.11233,815.39104 254.11727,814.87036 254.48214,814.19622 C 254.87774,813.4653 255.5687,813.12207 256.64475,813.12207 C 257.31044,813.12207 257.53082,813.06394 257.53082,812.88817 C 257.53082,812.41488 256.36199,810.98594 255.3406,810.21058 C 253.83562,809.06815 252.15366,808.45725 250.48433,808.44694 C 248.93071,808.43725 248.21288,808.7139 247.87907,809.45108 C 247.57142,810.1304 247.59123,811.97922 247.9177,813.05779 L 248.17442,813.90587 L 247.51341,814.09259 C 245.09166,814.7765 243.24885,814.22305 241.47629,812.27947 C 239.74664,810.38291 238.84342,807.59989 238.97695,804.57839 C 239.15486,800.55295 241.10127,797.86582 244.32878,797.18993 C 246.57858,796.71881 250.01789,797.708 252.28351,799.4779 C 254.05547,800.8621 255.8302,803.41734 257.18887,806.5405 C 257.83056,808.01556 258.25724,808.54795 258.25724,807.87353 C 258.25724,807.72415 257.86001,806.21244 257.37448,804.51416 C 256.37206,801.00771 255.49208,797.22643 255.11155,794.79047 C 254.0629,787.09782 255.52256,781.14613 260.10279,775.38051 L 261.11421,774.21923 C 266.32629,779.44209 268.48639,787.31426 267.29584,795.03932 C 266.85227,797.65633 266.25511,800.20399 265.22866,803.85842 C 264.75045,805.56106 264.35918,807.07276 264.35918,807.21786 C 264.35918,807.7777 264.79439,807.44006 265.24867,806.52772 C 266.29427,804.42774 267.68454,802.34201 269.14671,800.6798 C 271.58195,797.91151 273.01088,797.13509 275.69135,797.12372 C 278.22316,797.11298 280.01705,797.84546 281.49025,799.49151 C 282.86583,801.0284 283.53182,802.87665 283.53499,805.16569 C 283.53963,808.54141 281.92034,811.79206 279.50536,813.25497 C 278.36351,813.94658 276.76438,814.34196 275.6853,814.19931 L 274.88018,814.09296 L 274.88018,812.39187 C 274.88018,810.83732 274.84316,810.60674 274.45039,809.71596 C 273.88091,808.42433 273.2808,808.0519 271.82605,808.08743 C 270.57102,808.11805 269.52879,808.56382 267.75906,809.82708 C 266.39297,810.80215 264.64975,812.51821 264.64975,812.88796 C 264.64975,813.06888 264.89907,813.12207 265.74659,813.12207 C 267.36606,813.12207 268.28185,813.82506 268.28185,815.06818 C 268.28185,816.44565 267.46464,817.10365 265.75375,817.10365 C 264.68706,817.10365 264.64975,817.11705 264.64975,817.4995 C 264.64975,818.0658 265.71964,819.81761 266.42965,820.41381 C 267.4792,821.29518 268.46787,821.62863 270.06158,821.63875 C 270.84066,821.64372 271.47811,821.68669 271.47811,821.73423 C 271.47811,821.99655 270.9179,823.45112 270.50225,824.26797 C 269.62576,825.99062 268.38227,826.79111 267.19796,826.39518 C 266.87518,826.28721 266.32499,826.01884 265.97533,825.79876 C 265.62565,825.57861 265.29074,825.39848 265.23108,825.39848 C 265.17139,825.39848 265.09131,825.76999 265.0531,826.22397 C 264.93293,827.65198 264.18082,829.11616 262.68618,830.83165 C 261.95084,831.6756 261.25824,832.3644 261.14709,832.36223 C 261.03594,832.36007 260.38415,831.80876 259.69869,831.13716 z "
       style="fill:white;fill-opacity:1"
       id="path5539" />
    <path
       d="M 318.29269,921.84656 L 322.9878,921.84656 L 322.9878,929.89534 L 318.29269,929.89534 L 318.29269,921.84656 z M 299.51219,929.89534 L 322.9878,929.89534 L 322.9878,1030.5051 L 299.51219,1030.5051 L 299.51219,929.89534 z M 260.94512,973.4929 L 361.55488,973.4929 L 361.55488,1030.5051 L 260.94512,1030.5051 L 260.94512,973.4929 z M 294.81708,929.89534 L 327.68293,929.89534 L 327.68293,937.94412 L 294.81708,937.94412 L 294.81708,929.89534 z M 299.51219,921.84656 L 304.20731,921.84656 L 304.20731,929.89534 L 299.51219,929.89534 L 299.51219,921.84656 z M 308.90244,921.84656 L 313.59756,921.84656 L 313.59756,929.89534 L 308.90244,929.89534 L 308.90244,921.84656 z M 256.25,965.44413 L 284.42072,965.44413 L 284.42072,973.4929 L 256.25,973.4929 L 256.25,965.44413 z M 260.94512,957.39535 L 265.64025,957.39535 L 265.64025,965.44413 L 260.94512,965.44413 L 260.94512,957.39535 z M 270.33536,957.39535 L 275.03048,957.39535 L 275.03048,965.44413 L 270.33536,965.44413 L 270.33536,957.39535 z M 279.7256,957.39535 L 284.42072,957.39535 L 284.42072,965.44413 L 279.7256,965.44413 L 279.7256,957.39535 z M 338.07927,965.44413 L 366.25,965.44413 L 366.25,973.4929 L 338.07927,973.4929 L 338.07927,965.44413 z M 338.07927,957.39535 L 342.77438,957.39535 L 342.77438,965.44413 L 338.07927,965.44413 L 338.07927,957.39535 z M 347.46952,957.39535 L 352.16463,957.39535 L 352.16463,965.44413 L 347.46952,965.44413 L 347.46952,957.39535 z M 356.85975,957.39535 L 361.55488,957.39535 L 361.55488,965.44413 L 356.85975,965.44413 L 356.85975,957.39535 z M 256.25,1022.4563 L 366.25,1022.4563 L 366.25,1030.5051 L 256.25,1030.5051 L 256.25,1022.4563 z "
       style="color:black;fill:#fd0;fill-opacity:1;fill-rule:nonzero;stroke:none;stroke-width:5.07936525;stroke-linecap:butt;stroke-linejoin:miter;marker:none;marker-start:none;marker-mid:none;marker-end:none;stroke-miterlimit:4;stroke-dashoffset:0;stroke-opacity:1;visibility:visible;display:inline;overflow:visible"
       id="rect6490" />
    <path
       d="M 298.84146,1003.6758 L 323.65854,1003.6758 L 323.65854,1030.5051 L 298.84146,1030.5051 L 298.84146,1003.6758 z M 323.65853,1004.6818 C 323.65853,1011.5314 318.09951,1017.0905 311.24999,1017.0905 C 304.40048,1017.0905 298.84146,1011.5314 298.84146,1004.6818 C 298.84146,997.83246 304.40048,992.27342 311.24999,992.27342 C 318.09951,992.27342 323.65853,997.83246 323.65853,1004.6818 z "
       style="color:black;fill:#c00;fill-opacity:1;fill-rule:nonzero;stroke:none;stroke-width:5.07936525;stroke-linecap:butt;stroke-linejoin:miter;marker:none;marker-start:none;marker-mid:none;marker-end:none;stroke-miterlimit:4;stroke-dashoffset:0;stroke-opacity:1;visibility:visible;display:inline;overflow:visible"
       id="rect7408" />
  </g>
</svg>
